<svg viewBox="0 0 1024 1024"
     xmlns="http://www.w3.org/2000/svg"
     preserveAspectRatio="xMidYMid meet"
     style="width: 100%; height: 100%;">
<path fill="#000000" opacity="1.000000" stroke="none" 
	d="
M173.816284,360.383545 
	C176.753250,370.323273 179.716461,379.857819 182.245819,389.506073 
	C183.594437,394.650452 186.108475,396.800232 191.697998,396.782928 
	C247.341507,396.610596 302.987244,396.888062 358.628418,396.487671 
	C367.992981,396.420288 376.707336,403.597198 373.709747,415.580353 
	C366.450256,444.600647 359.728394,473.754974 352.619232,502.813538 
	C348.929321,517.896057 339.281891,525.300842 323.876617,525.309937 
	C285.059052,525.332825 246.241028,525.417664 207.424484,525.220337 
	C202.040909,525.192993 199.359558,527.068604 198.450104,532.221680 
	C197.903412,535.319275 196.888458,538.331726 196.157761,541.400024 
	C195.194473,545.445007 197.154480,548.222656 201.282181,548.624512 
	C202.768417,548.769226 204.278671,548.676392 205.777969,548.676453 
	C245.761734,548.677246 285.745483,548.674988 325.729248,548.675781 
	C335.403656,548.675964 341.281433,554.293274 341.330292,563.574524 
	C341.376404,572.339355 335.209351,578.297607 325.972809,578.303955 
	C283.656799,578.333008 241.340714,578.398071 199.024872,578.324768 
	C178.118790,578.288574 162.635284,559.725342 165.285736,538.828003 
	C166.301315,530.820862 168.307297,523.136292 170.890015,515.624695 
	C173.005066,509.473267 172.736115,503.646790 171.338928,497.517303 
	C163.069061,461.237030 154.993896,424.912262 146.662338,388.646301 
	C143.388290,374.394958 144.823822,376.244415 131.282242,376.243347 
	C121.286392,376.242584 111.285896,376.435486 101.295822,376.195038 
	C87.868927,375.871887 80.430733,365.841003 83.632309,352.775085 
	C85.288414,346.016357 91.308022,340.819031 98.429283,340.751587 
	C116.086990,340.584412 133.786835,339.984894 151.392532,340.957275 
	C162.750687,341.584595 169.499222,349.834778 173.816284,360.383545 
z"/>
<path fill="#000000" opacity="1.000000" stroke="none" 
	d="
M394.487274,570.415039 
	C392.512543,568.358948 392.507416,566.148987 392.692108,563.993774 
	C393.740845,551.755859 394.804108,539.518616 395.976257,527.292053 
	C397.132324,515.233704 398.408905,503.186768 399.659363,491.137604 
	C401.594879,472.488007 403.414764,453.824646 405.581696,435.201843 
	C406.279449,429.205322 408.356781,427.682678 414.081421,427.645996 
	C435.062561,427.511505 456.044281,427.411896 477.025757,427.411133 
	C483.923492,427.410889 486.743530,430.585297 486.244690,437.389893 
	C485.989868,440.866058 485.646606,444.339447 485.215515,447.798157 
	C484.408875,454.270172 481.265259,457.195099 474.579010,457.271179 
	C462.755554,457.405762 450.927490,457.461670 439.105896,457.270081 
	C434.631439,457.197540 432.006378,457.951843 431.984406,463.331757 
	C431.961517,468.941254 430.962677,474.551514 430.308899,480.151917 
	C429.900574,483.649506 431.360229,484.864197 434.833588,484.807220 
	C445.323517,484.635071 455.817474,484.661407 466.309631,484.690430 
	C474.334229,484.712646 476.711029,487.243317 476.264252,495.314941 
	C476.080872,498.627930 475.775055,501.955627 475.204071,505.220520 
	C474.424896,509.675995 471.866180,512.366760 467.044098,512.358582 
	C455.230255,512.338623 443.443787,513.693237 431.618988,513.082092 
	C429.029388,512.948303 426.818237,513.445068 426.491028,516.474731 
	C425.707214,523.732178 425.086243,531.007141 424.336426,538.268433 
	C423.981079,541.709534 425.322479,542.984741 428.860565,542.931641 
	C440.515045,542.756531 452.173767,542.803345 463.830475,542.856323 
	C473.084808,542.898438 475.337158,545.529175 474.469421,554.578186 
	C474.121277,558.208740 474.205261,561.849731 473.446289,565.479065 
	C472.523407,569.892090 470.127594,572.149536 465.665253,572.427979 
	C450.535980,573.371948 435.382202,573.370239 420.266266,572.671570 
	C413.449158,572.356445 406.652588,573.589294 399.856964,572.450623 
	C398.028625,572.144165 396.213928,572.095032 394.487274,570.415039 
z"/>
<path fill="#000000" opacity="1.000000" stroke="none" 
	d="
M575.643555,478.808167 
	C577.029419,463.473450 578.295166,448.585571 579.846863,433.727539 
	C580.461365,427.843140 583.170471,425.785583 589.252625,425.710907 
	C593.249512,425.661804 597.262878,425.522766 601.242004,425.803741 
	C606.441345,426.170776 608.638550,428.324677 608.263306,433.460999 
	C607.343933,446.046021 606.040161,458.603546 604.822632,471.165497 
	C604.665588,472.786438 603.910828,474.374542 604.993774,475.982635 
	C607.008484,476.478210 607.942993,474.759949 609.247253,473.889801 
	C622.757507,464.876678 636.920227,462.628723 651.580444,470.631561 
	C661.958130,476.296600 665.665283,486.181305 666.279358,497.365326 
	C666.856201,507.871124 664.773743,518.236938 663.999756,528.672852 
	C663.116272,540.584656 661.557800,552.445557 660.357788,564.335205 
	C659.786499,569.994995 657.442932,572.292847 651.710510,572.370667 
	C647.380066,572.429565 643.045776,572.450195 638.717285,572.334656 
	C633.779175,572.203003 631.757629,570.214966 631.681824,565.308350 
	C631.529968,555.476929 633.457520,545.808350 634.150696,536.037231 
	C634.749268,527.599060 636.016846,519.206970 636.565796,510.767059 
	C636.950928,504.845825 636.610352,498.425079 630.270142,495.682831 
	C623.587524,492.792480 616.541870,493.303101 610.301208,497.598450 
	C603.710754,502.134583 601.432922,509.253021 600.539856,516.577698 
	C598.792358,530.910156 597.695557,545.321533 596.282837,559.695679 
	C596.055786,562.006042 595.729736,564.326172 595.198425,566.582703 
	C594.386902,570.029114 592.135254,572.171387 588.545288,572.290100 
	C583.553650,572.455200 578.544678,572.492615 573.557312,572.268311 
	C569.436523,572.082947 566.664795,569.005432 567.023193,564.973083 
	C568.213501,551.581238 569.572266,538.204224 570.888123,524.823669 
	C572.138855,512.106628 573.405701,499.391083 574.692749,486.677612 
	C574.943481,484.200897 575.319702,481.736877 575.643555,478.808167 
z"/>
<path fill="#000000" opacity="1.000000" stroke="none" 
	d="
M684.805054,468.668915 
	C689.333984,469.325806 691.188110,467.075195 692.559082,463.560150 
	C694.527100,458.514038 694.877502,453.202240 695.561279,447.964417 
	C696.118774,443.693054 698.270264,441.710663 702.396851,441.660156 
	C707.224060,441.601044 712.053711,441.556458 716.879822,441.642395 
	C722.205750,441.737183 725.062622,444.772186 724.003540,449.996399 
	C723.036499,454.766479 723.894592,459.637085 722.529846,464.357025 
	C721.728638,467.127808 722.928345,468.761658 726.149475,468.679352 
	C730.973999,468.556122 735.806030,468.592163 740.631958,468.696014 
	C746.366760,468.819427 748.432800,470.888062 748.279602,476.688965 
	C748.179077,480.495209 747.835083,484.333099 747.154846,488.075897 
	C746.389893,492.284973 743.297852,494.146606 739.216064,494.250305 
	C734.224609,494.377106 729.225098,494.405334 724.234619,494.270844 
	C721.130981,494.187195 719.642883,495.428619 719.380310,498.532166 
	C718.302856,511.266846 717.042603,523.986816 716.054810,536.728027 
	C715.514038,543.702698 717.570557,545.788330 724.493103,545.951782 
	C727.654175,546.026428 730.821045,545.876160 733.981140,545.969177 
	C738.169495,546.092529 740.367798,548.155762 740.367493,552.539124 
	C740.367126,556.729980 739.674377,560.831116 738.785217,564.862793 
	C737.619934,570.146423 733.818542,573.273438 728.670532,573.967224 
	C720.269531,575.099487 711.775391,575.529236 703.489441,573.006470 
	C692.561768,569.679443 685.970276,560.214294 685.680969,547.458191 
	C685.461914,537.796326 687.370117,528.290222 687.998596,518.683899 
	C688.506165,510.925415 689.493958,503.198334 690.270203,495.442566 
	C687.572266,493.612000 684.848267,494.445801 682.295166,494.328491 
	C675.085022,493.997314 672.090393,490.391602 673.247437,483.328735 
	C673.488403,481.858154 673.577698,480.357849 673.660645,478.866974 
	C674.114014,470.712128 676.158752,468.755554 684.805054,468.668915 
z"/>
<path fill="#000000" opacity="1.000000" stroke="none" 
	d="
M532.821655,465.825989 
	C540.182861,466.784576 547.084534,467.608032 553.577820,470.526459 
	C557.723816,472.389923 560.072998,474.943542 559.362488,479.718445 
	C558.874390,482.998260 558.750427,486.340973 558.120850,489.589142 
	C557.086121,494.927551 553.747803,496.658081 548.508179,494.681732 
	C541.943176,492.205353 535.355408,490.016418 528.178162,490.342651 
	C525.767822,490.452240 523.558472,490.949188 521.567505,492.260437 
	C516.600586,495.531647 516.557251,501.814240 521.467834,505.100006 
	C524.140015,506.888000 527.201843,507.747040 530.264404,508.513153 
	C534.633484,509.606110 538.903564,510.966766 542.973999,512.888855 
	C555.182922,518.653931 560.162659,528.002686 558.148987,541.268433 
	C555.099426,561.358521 541.723572,573.175232 521.278931,574.462891 
	C510.929474,575.114807 501.058655,573.787170 491.644226,569.528748 
	C485.372498,566.691772 484.292389,564.480469 485.395813,557.782898 
	C485.882141,554.830872 485.476562,551.835083 486.337219,548.875000 
	C488.126007,542.722900 491.781464,540.886902 497.618591,543.733704 
	C500.753998,545.262939 503.648682,547.309814 506.835052,548.705078 
	C512.693237,551.270325 518.744263,551.794189 524.684448,548.919495 
	C528.224792,547.206177 530.634521,544.259644 530.418579,540.271057 
	C530.208191,536.385376 526.893738,534.921753 523.606567,533.875122 
	C519.175964,532.464478 514.607178,531.406311 510.312073,529.667419 
	C499.424133,525.259521 491.546844,518.019775 490.732391,505.553345 
	C489.782288,491.010803 494.450958,479.055145 507.864502,471.594208 
	C515.505554,467.344116 523.811890,466.099823 532.821655,465.825989 
z"/>
<path fill="#000000" opacity="1.000000" stroke="none" 
	d="
M800.148804,472.016357 
	C808.676025,466.531677 817.358826,464.278534 826.982605,467.558472 
	C830.566345,468.779877 832.418213,470.898346 832.401550,474.875702 
	C832.379761,480.060181 831.713318,485.132324 830.693359,490.184204 
	C829.794189,494.638000 827.144104,496.534698 822.540161,496.423706 
	C817.726013,496.307648 813.010193,494.549652 808.163818,495.519135 
	C797.619690,497.628296 791.248962,504.203033 788.393921,514.372314 
	C785.590515,524.357544 785.710449,534.741943 784.388489,544.929810 
	C783.492310,551.835510 783.097107,558.806335 782.193115,565.710815 
	C781.662598,569.763123 779.366089,572.394470 774.878357,572.379333 
	C770.052185,572.363159 765.224976,572.307617 760.400024,572.383667 
	C755.752319,572.456909 753.453003,569.999329 753.734680,565.633606 
	C754.311035,556.699951 755.195374,547.784119 756.069824,538.872314 
	C757.203186,527.322021 758.458130,515.783752 759.646667,504.238800 
	C760.665405,494.342773 761.636108,484.441711 762.684814,474.548920 
	C763.147217,470.186584 765.994080,468.075623 770.060669,467.823425 
	C774.370422,467.556152 778.727539,467.518860 783.031738,467.828735 
	C788.774658,468.242157 790.030701,470.313080 790.572754,479.353149 
	C794.478271,477.843323 796.465698,474.066742 800.148804,472.016357 
z"/>
<path fill="#000000" opacity="1.000000" stroke="none" 
	d="
M934.223877,425.937317 
	C937.416443,430.122375 936.598145,434.589264 936.024536,438.780975 
	C932.203735,466.704559 927.308838,494.455994 922.437073,522.211914 
	C921.625061,526.838196 919.193298,528.854858 914.849304,529.235962 
	C914.683594,529.250549 914.516785,529.255737 914.350403,529.258484 
	C894.954651,529.584595 897.184082,529.873474 897.790344,513.802185 
	C898.553772,493.563049 899.357788,473.302673 901.513184,453.133423 
	C902.147400,447.198395 902.434570,441.216370 902.637939,435.247620 
	C902.931091,426.642395 906.703552,422.525177 915.193787,422.735992 
	C921.524719,422.893188 928.286743,420.922638 934.223877,425.937317 
z"/>
<path fill="#000000" opacity="1.000000" stroke="none" 
	d="
M866.352173,545.157410 
	C865.644409,552.386597 865.087769,559.178650 864.191589,565.925659 
	C863.672119,569.836975 861.227356,572.242554 857.111877,572.328308 
	C851.949707,572.435913 846.783508,572.335510 841.619263,572.363159 
	C837.133423,572.387207 835.174133,569.926636 835.486694,565.734741 
	C836.215515,555.960693 837.069336,546.194519 838.002136,536.437561 
	C839.155273,524.376709 840.418579,512.326294 841.674561,500.275513 
	C842.569336,491.689941 843.495544,483.107239 844.476196,474.531097 
	C844.999329,469.956116 847.860779,467.827972 852.274902,467.739288 
	C856.937256,467.645660 861.612671,467.557922 866.265381,467.798279 
	C871.563721,468.072052 873.642151,470.108856 873.274170,475.325897 
	C872.479736,486.588440 871.361023,497.830505 870.227295,509.066040 
	C869.027771,520.953552 867.656921,532.823669 866.352173,545.157410 
z"/>
<path fill="#000000" opacity="1.000000" stroke="none" 
	d="
M318.830292,594.887695 
	C330.282104,601.476990 335.310394,611.378845 333.827728,623.839294 
	C332.227264,637.290344 323.906464,645.623169 310.836243,648.710266 
	C299.672302,651.347168 287.114441,646.629639 280.426025,637.286499 
	C272.949951,626.842957 273.423645,611.089661 281.501343,601.526245 
	C289.864288,591.625244 305.814087,588.695435 318.830292,594.887695 
z"/>
<path fill="#000000" opacity="1.000000" stroke="none" 
	d="
M166.621048,617.269409 
	C168.516525,602.498779 180.357407,591.997375 194.968872,591.679382 
	C210.635620,591.338440 222.746033,600.712769 225.169128,615.056519 
	C227.586929,629.369019 219.500183,642.763916 205.561005,647.535461 
	C184.613693,654.705933 166.620773,640.935974 166.621048,617.269409 
z"/>
<path fill="#000000" opacity="1.000000" stroke="none" 
	d="
M867.886719,456.461914 
	C858.786133,458.640656 851.031738,456.449219 847.251526,450.863586 
	C843.402893,445.176819 843.843750,435.860352 848.252380,429.714508 
	C852.646790,423.588440 860.397461,420.906616 868.226807,422.951263 
	C875.694092,424.901367 878.936646,430.728577 880.000977,437.548676 
	C881.123047,444.738342 877.554626,450.356659 871.833862,454.575714 
	C870.786743,455.347961 869.475586,455.762177 867.886719,456.461914 
z"/>
<path fill="#000000" opacity="1.000000" stroke="none" 
	d="
M901.873901,540.395630 
	C910.918152,538.716980 917.712830,541.081299 921.180847,546.845825 
	C924.657593,552.625061 924.072754,561.596252 919.863342,567.057007 
	C914.990112,573.378967 907.401855,575.986450 899.902954,573.915894 
	C893.583069,572.170776 888.037659,564.545227 887.797363,557.269287 
	C887.540588,549.497803 892.819702,543.033142 901.873901,540.395630 
z"/>
</svg>